<svg width="18" height="6" viewBox="0 0 18 6" fill="none" xmlns="http://www.w3.org/2000/svg">
<path d="M4.5 3.04297C4.5 1.76797 3.525 0.792969 2.25 0.792969C0.975 0.792969 -1.54083e-07 1.76797 -9.83506e-08 3.04297C-4.26186e-08 4.31797 0.975 5.29297 2.25 5.29297C3.525 5.29297 4.5 4.31797 4.5 3.04297Z" fill="#2E1720"/>
<path d="M6.75 3.04297C6.75 4.31797 7.725 5.29297 9 5.29297C10.275 5.29297 11.25 4.31797 11.25 3.04297C11.25 1.76797 10.275 0.792969 9 0.792969C7.725 0.792969 6.75 1.76797 6.75 3.04297Z" fill="#2E1720"/>
<path d="M13.5 3.04297C13.5 4.31797 14.475 5.29297 15.75 5.29297C17.025 5.29297 18 4.31797 18 3.04297C18 1.76797 17.025 0.792969 15.75 0.792969C14.475 0.792969 13.5 1.76797 13.5 3.04297Z" fill="#2E1720"/>
</svg>
