<svg width="60" height="40" viewBox="0 0 60 40" fill="none" xmlns="http://www.w3.org/2000/svg">
<path d="M10.16 16.41V15.41H9.25839L9.16534 16.3068L10.16 16.41ZM8.75 30V31H9.65162L9.74466 30.1032L8.75 30ZM4.55 30L3.55539 29.8963L3.44029 31H4.55V30ZM6.74 9V8H5.83886L5.74539 8.89628L6.74 9ZM10.67 9L11.5422 8.51093L11.2558 8H10.67V9ZM18.29 22.59L17.4178 23.0791L17.7042 23.59H18.29V22.59ZM18.35 22.59V23.59H19.2496L19.3444 22.6954L18.35 22.59ZM19.79 9V8H18.8904L18.7956 8.89463L19.79 9ZM23.99 9L24.9846 9.10372L25.0997 8H23.99V9ZM21.8 30V31H22.7011L22.7946 30.1037L21.8 30ZM17.87 30L16.9986 30.4905L17.2854 31H17.87V30ZM10.22 16.41L11.0914 15.9195L10.8046 15.41H10.22V16.41ZM9.16534 16.3068L7.75534 29.8968L9.74466 30.1032L11.1547 16.5132L9.16534 16.3068ZM8.75 29H4.55V31H8.75V29ZM5.54461 30.1037L7.73461 9.10372L5.74539 8.89628L3.55539 29.8963L5.54461 30.1037ZM6.74 10H10.67V8H6.74V10ZM9.79776 9.48907L17.4178 23.0791L19.1622 22.1009L11.5422 8.51093L9.79776 9.48907ZM18.29 23.59H18.35V21.59H18.29V23.59ZM19.3444 22.6954L20.7844 9.10537L18.7956 8.89463L17.3556 22.4846L19.3444 22.6954ZM19.79 10H23.99V8H19.79V10ZM22.9954 8.89628L20.8054 29.8963L22.7946 30.1037L24.9846 9.10372L22.9954 8.89628ZM21.8 29H17.87V31H21.8V29ZM18.7414 29.5095L11.0914 15.9195L9.34858 16.9005L16.9986 30.4905L18.7414 29.5095ZM10.22 15.41H10.16V17.41H10.22V15.41ZM32.0335 21V20H31.1315L31.0388 20.8972L32.0335 21ZM31.1035 30V31H32.0055L32.0982 30.1028L31.1035 30ZM26.9035 30L25.9089 29.8963L25.7938 31H26.9035V30ZM29.0935 9V8H28.1924L28.0989 8.89628L29.0935 9ZM41.9635 9L42.9577 9.1077L43.0777 8H41.9635V9ZM41.5735 12.6V13.6H42.471L42.5677 12.7077L41.5735 12.6ZM32.9035 12.6V11.6H31.9985L31.9085 12.5005L32.9035 12.6ZM32.4235 17.4L31.4285 17.3005L31.3185 18.4H32.4235V17.4ZM39.2935 17.4L40.2877 17.5077L40.4077 16.4H39.2935V17.4ZM38.9035 21V22H39.801L39.8977 21.1077L38.9035 21ZM31.0388 20.8972L30.1088 29.8972L32.0982 30.1028L33.0282 21.1028L31.0388 20.8972ZM31.1035 29H26.9035V31H31.1035V29ZM27.8981 30.1037L30.0881 9.10372L28.0989 8.89628L25.9089 29.8963L27.8981 30.1037ZM29.0935 10H41.9635V8H29.0935V10ZM40.9693 8.89229L40.5793 12.4923L42.5677 12.7077L42.9577 9.1077L40.9693 8.89229ZM41.5735 11.6H32.9035V13.6H41.5735V11.6ZM31.9085 12.5005L31.4285 17.3005L33.4186 17.4995L33.8986 12.6995L31.9085 12.5005ZM32.4235 18.4H39.2935V16.4H32.4235V18.4ZM38.2993 17.2923L37.9093 20.8923L39.8977 21.1077L40.2877 17.5077L38.2993 17.2923ZM38.9035 20H32.0335V22H38.9035V20ZM52.9454 12.6V11.6H52.0435L51.9507 12.4971L52.9454 12.6ZM51.1454 30V31H52.0473L52.1401 30.1029L51.1454 30ZM46.9454 30L45.9507 29.8971L45.8366 31H46.9454V30ZM48.7454 12.6L49.7401 12.7029L49.8542 11.6H48.7454V12.6ZM43.0754 12.6L42.0812 12.4923L41.9612 13.6H43.0754V12.6ZM43.4654 9V8H42.5679L42.4712 8.8923L43.4654 9ZM59.0054 9L59.9996 9.1077L60.1196 8H59.0054V9ZM58.6154 12.6V13.6H59.5129L59.6096 12.7077L58.6154 12.6ZM51.9507 12.4971L50.1507 29.8971L52.1401 30.1029L53.9401 12.7029L51.9507 12.4971ZM51.1454 29H46.9454V31H51.1454V29ZM47.9401 30.1029L49.7401 12.7029L47.7507 12.4971L45.9507 29.8971L47.9401 30.1029ZM48.7454 11.6H43.0754V13.6H48.7454V11.6ZM44.0696 12.7077L44.4596 9.1077L42.4712 8.8923L42.0812 12.4923L44.0696 12.7077ZM43.4654 10H59.0054V8H43.4654V10ZM58.0112 8.89229L57.6212 12.4923L59.6096 12.7077L59.9996 9.1077L58.0112 8.89229ZM58.6154 11.6H52.9454V13.6H58.6154V11.6Z" fill="#2E1720"/>
<path d="M8.16 17.41L6.75 31H2.55L4.74 10H8.67L16.29 23.59H16.35L17.79 10H21.99L19.8 31H15.87L8.22 17.41H8.16ZM30.0335 22L29.1035 31H24.9035L27.0935 10H39.9635L39.5735 13.6H30.9035L30.4235 18.4H37.2935L36.9035 22H30.0335ZM50.9454 13.6L49.1454 31H44.9454L46.7454 13.6H41.0754L41.4654 10H57.0054L56.6154 13.6H50.9454Z" fill="#F10C6D"/>
</svg>
