<svg width="58" height="19" viewBox="0 0 58 19" fill="none" xmlns="http://www.w3.org/2000/svg">
<path d="M0.624084 8.9454C0.445135 8.73508 0.470561 8.41952 0.680875 8.24057C0.891189 8.06162 1.20675 8.08705 1.3857 8.29736L0.624084 8.9454ZM29.7549 10.2285L30.2138 10.4271L30.201 10.4566L30.1846 10.4842L29.7549 10.2285ZM57.0041 13.4189L52.0109 10.5205L57.0176 7.64545L57.0041 13.4189ZM1.00489 8.62138C1.3857 8.29736 1.38564 8.2973 1.38565 8.29731C1.38574 8.29742 1.38582 8.29751 1.386 8.29772C1.38637 8.29815 1.387 8.29889 1.3879 8.29994C1.38969 8.30203 1.39253 8.30534 1.39641 8.30984C1.40417 8.31886 1.4161 8.33264 1.4321 8.35097C1.46409 8.38764 1.51237 8.44248 1.5762 8.51366C1.70388 8.65605 1.89373 8.86376 2.13997 9.12221C2.63261 9.63926 3.35012 10.3585 4.24629 11.1634C6.04213 12.7764 8.53928 14.719 11.3695 16.0751C14.2017 17.4321 17.3233 18.1812 20.3966 17.4786C23.4552 16.7794 26.559 14.6205 29.3252 9.97273L30.1846 10.4842C27.3156 15.3045 24.008 17.6788 20.6194 18.4535C17.2455 19.2248 13.8839 18.3887 10.9374 16.9769C7.989 15.5642 5.41184 13.5545 3.57807 11.9074C2.65943 11.0823 1.92329 10.3445 1.41598 9.81202C1.16226 9.54572 0.965562 9.33056 0.83169 9.18127C0.764748 9.10662 0.713496 9.04841 0.678658 9.00849C0.661238 8.98853 0.64792 8.97314 0.638795 8.96255C0.634232 8.95725 0.630718 8.95315 0.628262 8.95029C0.627034 8.94885 0.626071 8.94773 0.625374 8.94691C0.625026 8.9465 0.624703 8.94612 0.624529 8.94592C0.624273 8.94562 0.624084 8.9454 1.00489 8.62138ZM29.296 10.0298C32.4485 2.74625 37.1047 -0.227718 41.9852 0.105096C46.7991 0.433364 51.6218 3.9738 55.1773 9.23618L54.3487 9.79602C50.8836 4.66755 46.3022 1.4018 41.9172 1.10278C37.5988 0.808303 33.2612 3.38594 30.2138 10.4271L29.296 10.0298Z" fill="url(#paint0_linear_1_117)"/>
<defs>
<linearGradient id="paint0_linear_1_117" x1="57.4297" y1="10.5158" x2="4.13247" y2="10.5216" gradientUnits="userSpaceOnUse">
<stop stop-color="#2E1720"/>
<stop offset="1" stop-color="#29301E" stop-opacity="0"/>
</linearGradient>
</defs>
</svg>
