<svg width="151" height="14" viewBox="0 0 151 14" fill="none" xmlns="http://www.w3.org/2000/svg">
<path d="M0.704698 10.5114C0.218982 10.7742 0.0383265 11.3811 0.301192 11.8668C0.564058 12.3525 1.1709 12.5332 1.65662 12.2703L0.704698 10.5114ZM78.4308 6.51031L78.7781 5.57255L78.7448 5.56021L78.7107 5.55026L78.4308 6.51031ZM150.45 0.620026L139.025 2.29431L146.187 11.3515L150.45 0.620026ZM1.18066 11.3908C1.65662 12.2703 1.65637 12.2704 1.65625 12.2705C1.65638 12.2704 1.65638 12.2704 1.65663 12.2703C1.65713 12.27 1.65814 12.2695 1.65964 12.2687C1.66264 12.2671 1.66763 12.2644 1.67461 12.2607C1.68856 12.2532 1.71045 12.2417 1.74018 12.2261C1.79964 12.195 1.89048 12.1479 2.01206 12.0865C2.25523 11.9636 2.62129 11.783 3.10501 11.5566C4.07251 11.1038 5.51039 10.4676 7.3768 9.74261C11.1101 8.2924 16.555 6.48775 23.3774 5.08259C37.0212 2.27248 56.1646 1.06166 78.151 7.47036L78.7107 5.55026C56.3501 -0.967485 36.8684 0.261956 22.9739 3.12371C16.0271 4.55449 10.4745 6.39368 6.65261 7.87833C4.74143 8.62074 3.26228 9.27477 2.25715 9.74524C1.75457 9.98048 1.37042 10.1699 1.10994 10.3015C0.979707 10.3673 0.880382 10.4187 0.812625 10.4542C0.778746 10.4719 0.752758 10.4857 0.734743 10.4953C0.725736 10.5001 0.718721 10.5038 0.71371 10.5065C0.711205 10.5079 0.7092 10.5089 0.707698 10.5097C0.706947 10.5101 0.706196 10.5106 0.705821 10.5108C0.705197 10.5111 0.704698 10.5114 1.18066 11.3908ZM78.0836 7.44807C90.5422 12.0619 103.536 13.7645 115.121 13.4248C126.691 13.0855 136.93 10.7064 143.855 7.08755L142.929 5.31497C136.351 8.75226 126.434 11.0922 115.063 11.4257C103.705 11.7587 90.9702 10.0877 78.7781 5.57255L78.0836 7.44807Z" fill="url(#paint0_linear_1_118)"/>
<defs>
<linearGradient id="paint0_linear_1_118" x1="153.697" y1="2.76769" x2="73.7036" y2="78.5463" gradientUnits="userSpaceOnUse">
<stop stop-color="#F10C6D"/>
<stop offset="1" stop-color="#F10C6D" stop-opacity="0"/>
</linearGradient>
</defs>
</svg>
